<?xml version="1.0" encoding="iso-8859-1"?>
<!-- Generator: Adobe Illustrator 19.0.0, SVG Export Plug-In . SVG Version: 6.00 Build 0)  -->
<svg version="1.1" id="Capa_1" xmlns="http://www.w3.org/2000/svg" xmlns:xlink="http://www.w3.org/1999/xlink" x="0px" y="0px"
	 viewBox="0 0 512 512" style="enable-background:new 0 0 512 512;" xml:space="preserve">
<linearGradient id="SVGID_1_" gradientUnits="userSpaceOnUse" x1="236.9381" y1="522.3755" x2="236.9381" y2="63.3575" gradientTransform="matrix(1.0667 0 0 -1.0667 3.2666 557.5334)">
	<stop  offset="0" style="stop-color:#FFFFFF"/>
	<stop  offset="1" style="stop-color:#E8EFEE"/>
</linearGradient>
<path style="fill:url(#SVGID_1_);" d="M350.887,304.099l-53.597-37.922c-0.044-0.031-0.087-0.062-0.13-0.093
	c-6.698-4.757-6.698-15.413,0-20.171c0.044-0.031,0.087-0.062,0.13-0.093l53.597-37.922c50.048-35.41,79.268-89.54,79.268-146.842
	H81.846c0,57.301,29.22,111.431,79.268,146.842l53.597,37.922c0.044,0.031,0.087,0.062,0.13,0.093
	c6.698,4.757,6.698,15.413,0,20.171c-0.044,0.031-0.087,0.062-0.13,0.093l-53.597,37.922c-50.048,35.41-79.268,89.54-79.268,146.842
	h348.309C430.155,393.639,400.935,339.51,350.887,304.099z"/>
<linearGradient id="SVGID_2_" gradientUnits="userSpaceOnUse" x1="236.938" y1="428.2675" x2="236.938" y2="298.6275" gradientTransform="matrix(1.0667 0 0 -1.0667 3.2666 557.5334)">
	<stop  offset="0" style="stop-color:#FFFFFF"/>
	<stop  offset="1" style="stop-color:#E8EFEE"/>
</linearGradient>
<path style="fill:url(#SVGID_2_);" d="M292.659,245.915c0.038-0.031,0.078-0.062,0.116-0.093l47.737-37.922
	c44.575-35.41,70.602-89.54,70.602-146.842H100.888c0,57.301,26.026,111.431,70.602,146.842l47.737,37.922
	c0.038,0.031,0.078,0.062,0.116,0.093c2.982,2.379,19.82,14.171,36.658,14.171C272.838,260.085,289.676,248.293,292.659,245.915z"/>
<linearGradient id="SVGID_3_" gradientUnits="userSpaceOnUse" x1="236.938" y1="282.4675" x2="236.938" y2="63.9375" gradientTransform="matrix(1.0667 0 0 -1.0667 3.2666 557.5334)">
	<stop  offset="0" style="stop-color:#FFFFFF"/>
	<stop  offset="1" style="stop-color:#E8EFEE"/>
</linearGradient>
<path style="fill:url(#SVGID_3_);" d="M219.342,270.171c-0.038,0.031-0.078,0.062-0.116,0.093l-47.737,37.922
	c-44.575,35.41-70.602,89.54-70.602,146.842h310.225c0-57.301-26.026-111.431-70.602-146.842l-47.737-37.922
	c-0.038-0.031-0.078-0.062-0.116-0.093c-2.982-2.379-19.82-14.171-36.658-14.171C239.163,256,222.325,267.792,219.342,270.171z"/>
<linearGradient id="SVGID_4_" gradientUnits="userSpaceOnUse" x1="301.8246" y1="381.214" x2="-118.9654" y2="802.004" gradientTransform="matrix(1.0667 0 0 -1.0667 3.2666 557.5334)">
	<stop  offset="0" style="stop-color:#C2CECE;stop-opacity:0"/>
	<stop  offset="0.179" style="stop-color:#AFBCBC;stop-opacity:0.179"/>
	<stop  offset="1" style="stop-color:#5B6A6A"/>
</linearGradient>
<path style="fill:url(#SVGID_4_);" d="M297.159,245.915c0.044-0.031,0.087-0.062,0.13-0.093l53.597-37.922
	c50.048-35.41,79.268-89.54,79.268-146.842H81.846c0,5.697,0.301,11.36,0.87,16.978l3.587,5.055l343.847,367.54
	c-0.105-57.186-29.306-111.186-79.264-146.533l-53.597-37.922c-0.044-0.031-0.087-0.062-0.13-0.093
	C290.461,261.328,290.461,250.672,297.159,245.915z"/>
<linearGradient id="SVGID_5_" gradientUnits="userSpaceOnUse" x1="236.938" y1="387.7075" x2="236.938" y2="195.7075" gradientTransform="matrix(1.0667 0 0 -1.0667 3.2666 557.5334)">
	<stop  offset="0" style="stop-color:#FFCF95"/>
	<stop  offset="0.427" style="stop-color:#FFC954"/>
	<stop  offset="1" style="stop-color:#FFC200"/>
</linearGradient>
<path style="fill:url(#SVGID_5_);" d="M388.267,450.359c-0.083-31.73-15.632-61.131-40.723-78.086l-54.625-36.914
	c-19.615-13.255-31.507-36.33-31.507-61.135c0-17.351,14.313-28.404,14.313-28.404l52.335-37.916
	c5.52-5.148,10.714-10.687,15.549-16.577c3.069-3.739,1.245-9.637-3.29-10.753l0,0c-55.487-13.648-113.149-13.648-168.635,0l0,0
	c-4.534,1.116-6.358,7.014-3.29,10.753c4.835,5.89,10.028,11.429,15.549,16.577l52.335,37.916c0,0,14.313,11.054,14.313,28.404
	c0,24.805-11.892,47.879-31.507,61.135l-54.625,36.914c-25.091,16.956-40.64,46.356-40.723,78.086c0,0.192-0.001,0.385-0.001,0.577
	h264.533C388.267,450.745,388.267,450.551,388.267,450.359z"/>
<linearGradient id="SVGID_6_" gradientUnits="userSpaceOnUse" x1="236.938" y1="232.7775" x2="236.938" y2="94.7575" gradientTransform="matrix(1.0667 0 0 -1.0667 3.2666 557.5334)">
	<stop  offset="0" style="stop-color:#FFCF95"/>
	<stop  offset="0.427" style="stop-color:#FFC954"/>
	<stop  offset="1" style="stop-color:#FFC200"/>
</linearGradient>
<path style="fill:url(#SVGID_6_);" d="M388.267,450.359c-0.083-31.73-15.632-61.131-40.723-78.086l-54.625-36.914
	c-19.615-13.255-31.507-36.33-31.507-61.135c0-6.669,2.116-12.401,4.719-16.94c-3.3-0.794-6.714-1.284-10.129-1.284
	c-3.417,0-6.83,0.491-10.13,1.284c2.603,4.538,4.719,10.271,4.719,16.94c0,24.805-11.892,47.879-31.507,61.135l-54.625,36.914
	c-25.091,16.956-40.64,46.356-40.723,78.086c0,0.192-0.001,0.385-0.001,0.577h264.533
	C388.267,450.745,388.267,450.551,388.267,450.359z"/>
<linearGradient id="SVGID_7_" gradientUnits="userSpaceOnUse" x1="129.698" y1="191.311" x2="487.4681" y2="191.311" gradientTransform="matrix(1.0667 0 0 -1.0667 3.2666 557.5334)">
	<stop  offset="0" style="stop-color:#FFC200;stop-opacity:0"/>
	<stop  offset="0.63" style="stop-color:#EB7E00;stop-opacity:0.63"/>
	<stop  offset="1" style="stop-color:#E05A00"/>
</linearGradient>
<path style="fill:url(#SVGID_7_);" d="M388.267,450.359c-0.083-31.73-15.632-61.131-40.723-78.086l-54.625-36.914
	c-19.615-13.255-31.507-36.33-31.507-61.135c0-6.669,2.116-12.401,4.719-16.94c-3.3-0.794-6.714-1.284-10.129-1.284
	c-3.417,0-6.83,0.491-10.13,1.284c2.603,4.538,4.719,10.271,4.719,16.94c0,24.805-11.892,47.879-31.507,61.135l-54.625,36.914
	c-25.091,16.956-40.64,46.356-40.723,78.086c0,0.192-0.001,0.385-0.001,0.577h264.533
	C388.267,450.745,388.267,450.551,388.267,450.359z"/>
<linearGradient id="SVGID_8_" gradientUnits="userSpaceOnUse" x1="177.8288" y1="124.6807" x2="192.4888" y2="100.0207" gradientTransform="matrix(1.0667 0 0 -1.0667 3.2666 557.5334)">
	<stop  offset="0" style="stop-color:#C69C6D"/>
	<stop  offset="1" style="stop-color:#A67C52"/>
</linearGradient>
<rect x="81.846" y="67.936" style="fill:url(#SVGID_8_);" width="20.564" height="374.016"/>
<linearGradient id="SVGID_9_" gradientUnits="userSpaceOnUse" x1="142.8095" y1="392.5789" x2="66.7535" y2="468.6389" gradientTransform="matrix(1.0667 0 0 -1.0667 3.2666 557.5334)">
	<stop  offset="0" style="stop-color:#C69C6D;stop-opacity:0"/>
	<stop  offset="1" style="stop-color:#754C24"/>
</linearGradient>
<polygon style="fill:url(#SVGID_9_);" points="81.846,82.684 82.965,83.092 102.41,102.538 102.41,67.937 81.846,67.937 "/>
<linearGradient id="SVGID_10_" gradientUnits="userSpaceOnUse" x1="485.0612" y1="124.6187" x2="499.7113" y2="99.9587" gradientTransform="matrix(1.0667 0 0 -1.0667 3.2666 557.5334)">
	<stop  offset="0" style="stop-color:#C69C6D"/>
	<stop  offset="1" style="stop-color:#A67C52"/>
</linearGradient>
<rect x="409.59" y="67.936" style="fill:url(#SVGID_10_);" width="20.564" height="374.016"/>
<linearGradient id="SVGID_11_" gradientUnits="userSpaceOnUse" x1="450.0677" y1="392.5771" x2="374.0176" y2="468.6371" gradientTransform="matrix(1.0667 0 0 -1.0667 3.2666 557.5334)">
	<stop  offset="0" style="stop-color:#C69C6D;stop-opacity:0"/>
	<stop  offset="1" style="stop-color:#754C24"/>
</linearGradient>
<polygon style="fill:url(#SVGID_11_);" points="409.591,82.684 410.71,83.092 430.155,102.538 430.155,67.937 409.591,67.937 "/>
<linearGradient id="SVGID_12_" gradientUnits="userSpaceOnUse" x1="236.9375" y1="66.3375" x2="236.9375" y2="41.6775" gradientTransform="matrix(1.0667 0 0 -1.0667 3.2666 557.5334)">
	<stop  offset="0" style="stop-color:#C69C6D"/>
	<stop  offset="1" style="stop-color:#A67C52"/>
</linearGradient>
<path style="fill:url(#SVGID_12_);" d="M437.391,512H74.61c-8.998,0-16.292-7.295-16.292-16.292v-50.507
	c0-8.998,7.295-16.292,16.292-16.292H437.39c8.998,0,16.292,7.295,16.292,16.292v50.507C453.684,504.705,446.389,512,437.391,512z"
	/>
<linearGradient id="SVGID_13_" gradientUnits="userSpaceOnUse" x1="236.9375" y1="468.4375" x2="236.9375" y2="443.7735" gradientTransform="matrix(1.0667 0 0 -1.0667 3.2666 557.5334)">
	<stop  offset="0" style="stop-color:#C69C6D"/>
	<stop  offset="1" style="stop-color:#A67C52"/>
</linearGradient>
<path style="fill:url(#SVGID_13_);" d="M437.391,83.092H74.61c-8.998,0-16.292-7.295-16.292-16.292V16.293
	C58.317,7.295,65.612,0,74.61,0H437.39c8.998,0,16.292,7.295,16.292,16.292v50.507C453.684,75.797,446.389,83.092,437.391,83.092z"
	/>
<g>
</g>
<g>
</g>
<g>
</g>
<g>
</g>
<g>
</g>
<g>
</g>
<g>
</g>
<g>
</g>
<g>
</g>
<g>
</g>
<g>
</g>
<g>
</g>
<g>
</g>
<g>
</g>
<g>
</g>
</svg>
